<svg version="1.0" xmlns="http://www.w3.org/2000/svg"
 viewBox="0 0 1920.000000 447.000000"
 preserveAspectRatio="xMidYMid meet">

<g transform="translate(0.000000,447.000000) scale(0.100000,-0.100000)"
stroke="none">
<path d="M1475 4460 c-710 -81 -1163 -461 -1281 -1075 -24 -121 -24 -384 0
-515 69 -387 266 -649 608 -810 193 -90 329 -122 808 -190 190 -27 372 -56
405 -65 192 -50 311 -159 361 -330 26 -90 23 -251 -5 -334 -61 -176 -191 -281
-426 -342 -83 -22 -109 -24 -345 -24 -226 0 -268 3 -368 23 -259 52 -465 148
-618 286 -29 25 -56 46 -61 46 -4 0 -131 -123 -281 -273 l-274 -274 66 -63
c289 -277 675 -447 1136 -500 161 -18 483 -24 620 -11 935 89 1474 648 1410
1462 -51 642 -378 990 -1047 1114 -43 8 -223 35 -401 60 -344 49 -417 66 -526
123 -180 94 -268 248 -253 442 19 237 167 407 417 481 95 27 347 37 501 19
228 -26 439 -108 589 -229 l75 -60 268 267 c147 147 266 270 265 274 -7 18
-155 137 -253 203 -224 151 -453 234 -770 281 -121 18 -509 26 -620 14z"/>
<path d="M9360 4464 c-275 -26 -538 -120 -770 -275 -116 -77 -335 -292 -404
-397 -136 -206 -209 -428 -248 -757 -19 -156 -19 -1444 0 -1600 39 -329 112
-551 248 -757 69 -105 288 -320 404 -397 194 -129 392 -211 618 -253 158 -30
495 -32 647 -4 347 64 650 226 891 477 220 231 336 492 389 880 26 189 40 813
27 1225 -15 456 -36 631 -103 839 -165 508 -636 900 -1204 1001 -88 15 -400
27 -495 18z m394 -834 c224 -57 409 -227 479 -438 61 -184 79 -408 79 -997 0
-867 -36 -1059 -242 -1266 -137 -137 -276 -197 -481 -206 -246 -12 -451 69
-599 234 -58 65 -122 188 -145 278 -45 178 -71 675 -60 1165 15 691 53 863
233 1046 180 182 466 253 736 184z"/>
<path d="M4030 4050 l0 -380 573 -2 572 -3 0 -1813 0 -1812 427 0 428 0 2
1813 3 1812 573 3 572 2 0 380 0 380 -1575 0 -1575 0 0 -380z"/>
<path d="M12350 2235 l0 -2195 430 0 430 0 0 890 0 890 865 2 866 3 0 380 0
380 -866 3 -865 2 0 540 0 540 1020 0 1020 0 0 380 0 380 -1450 0 -1450 0 0
-2195z"/>
<path d="M16300 2235 l0 -2195 430 0 430 0 0 890 0 890 870 0 870 0 0 385 0
385 -870 0 -870 0 0 540 0 540 1020 0 1020 0 0 380 0 380 -1450 0 -1450 0 0
-2195z"/>
</g>
</svg>
