<svg version="1.0" xmlns="http://www.w3.org/2000/svg"
 width="894.000000pt" height="182.000000pt" viewBox="0 0 894.000000 182.000000"
 preserveAspectRatio="xMidYMid meet">

<g transform="translate(0.000000,182.000000) scale(0.100000,-0.100000)"
stroke="none">
<path d="M703 1811 c-13 -6 -23 -15 -23 -21 0 -6 28 -78 62 -161 59 -145 62
-150 86 -144 44 11 372 -6 372 -20 0 -6 -63 -181 -141 -389 -80 -214 -138
-385 -135 -394 23 -64 202 -492 206 -492 3 0 131 286 284 635 l280 634 80 -5
c45 -3 139 -8 210 -12 l129 -7 27 60 c102 231 103 237 58 254 -90 34 -1432 89
-1495 62z"/>
<path d="M73 1771 c-46 -8 -73 -26 -73 -48 0 -8 110 -261 244 -561 134 -301
283 -635 330 -742 52 -118 96 -204 112 -217 24 -22 32 -23 210 -23 140 0 184
3 184 13 0 6 -145 362 -322 791 -271 652 -327 780 -346 787 -27 10 -276 10
-339 0z"/>
<path d="M2708 1443 c35 -103 76 -223 90 -265 l26 -78 58 0 c32 0 58 2 58 4 0
2 40 120 90 262 49 143 90 260 90 262 0 1 -27 2 -60 2 l-59 0 -20 -67 c-56
-188 -100 -327 -101 -323 -1 3 -27 91 -58 195 l-57 190 -61 3 -61 3 65 -188z"/>
<path d="M3180 1365 l0 -265 175 0 175 0 0 40 0 40 -125 0 -125 0 0 80 0 80
105 0 105 0 0 40 0 40 -105 0 -105 0 0 65 0 65 125 0 125 0 0 40 0 40 -175 0
-175 0 0 -265z"/>
<path d="M3590 1365 l0 -265 165 0 165 0 0 40 0 40 -115 0 -115 0 0 225 0 225
-50 0 -50 0 0 -265z"/>
<path d="M4000 1365 l0 -265 50 0 50 0 0 110 0 110 105 0 105 0 0 40 0 40
-105 0 -105 0 0 75 0 75 120 0 120 0 0 40 0 40 -170 0 -170 0 0 -265z"/>
<path d="M4400 1365 l0 -265 175 0 175 0 0 40 0 40 -125 0 -125 0 0 80 0 80
105 0 105 0 0 40 0 40 -105 0 -105 0 0 65 0 65 125 0 125 0 0 40 0 40 -175 0
-175 0 0 -265z"/>
<path d="M4820 1366 l0 -266 50 0 50 0 0 100 0 100 45 0 45 0 50 -100 50 -100
60 0 61 0 -60 113 -61 113 30 18 c41 24 64 71 64 133 0 60 -21 96 -75 128 -28
16 -57 20 -171 23 l-138 4 0 -266z m251 165 c19 -15 24 -29 24 -66 0 -65 -25
-85 -111 -85 l-64 0 0 85 0 85 64 0 c48 0 70 -5 87 -19z"/>
<path d="M5290 1365 l0 -265 93 0 c121 0 186 19 237 70 77 77 93 232 34 339
-49 91 -117 121 -271 121 l-93 0 0 -265z m220 170 c49 -25 65 -68 65 -170 0
-136 -37 -185 -140 -185 l-45 0 0 185 0 185 45 0 c26 0 59 -7 75 -15z"/>
<path d="M5882 1615 c-92 -29 -136 -110 -98 -183 23 -45 59 -71 146 -107 95
-39 120 -59 120 -92 0 -85 -163 -84 -184 2 -6 23 -11 25 -57 25 l-52 0 6 -37
c9 -50 59 -100 121 -118 158 -47 303 38 272 160 -11 43 -63 91 -124 115 -140
54 -152 62 -152 109 0 58 99 83 145 36 14 -13 25 -31 25 -40 0 -12 12 -15 55
-15 59 0 62 3 41 53 -36 88 -151 128 -264 92z"/>
<path d="M6200 1590 l0 -40 75 0 75 0 0 -225 0 -225 55 0 55 0 0 225 0 225 80
0 80 0 0 40 0 40 -210 0 -210 0 0 -40z"/>
<path d="M6690 1365 l0 -265 55 0 55 0 0 265 0 265 -55 0 -55 0 0 -265z"/>
<path d="M6910 1365 l0 -265 50 0 50 0 0 171 c0 93 4 168 8 165 5 -3 53 -79
108 -170 l99 -165 53 -1 52 0 0 265 0 265 -50 0 -50 0 -2 -172 -3 -173 -105
172 -105 173 -52 0 -53 0 0 -265z"/>
<path d="M7556 1615 c-51 -18 -94 -60 -119 -115 -29 -64 -29 -216 0 -280 43
-98 144 -145 265 -122 33 6 77 20 97 30 l36 19 3 111 3 112 -101 0 -100 0 0
-40 0 -40 50 0 50 0 0 -44 c0 -35 -5 -48 -22 -60 -31 -22 -96 -20 -134 3 -43
26 -59 77 -58 181 1 123 36 180 112 180 46 0 71 -16 88 -56 14 -32 17 -34 64
-34 41 0 50 3 50 18 0 26 -42 93 -71 114 -50 37 -145 48 -213 23z"/>
<path d="M7930 1365 l0 -265 175 0 175 0 0 40 0 40 -125 0 -125 0 0 80 0 80
105 0 105 0 0 40 0 40 -105 0 -105 0 0 65 0 65 125 0 125 0 0 40 0 40 -175 0
-175 0 0 -265z"/>
<path d="M8330 1590 l0 -40 75 0 75 0 0 -225 0 -225 55 0 55 0 0 225 0 225 80
0 80 0 0 40 0 40 -210 0 -210 0 0 -40z"/>
<path d="M2708 553 c35 -103 76 -223 90 -265 l26 -78 58 0 c32 0 58 2 58 4 0
2 40 120 90 262 49 143 90 260 90 262 0 1 -27 2 -60 2 l-59 0 -20 -67 c-56
-188 -100 -327 -101 -323 -1 3 -27 91 -58 195 l-57 190 -61 3 -61 3 65 -188z"/>
<path d="M3180 475 l0 -265 175 0 175 0 0 40 0 40 -125 0 -125 0 0 80 0 80
105 0 105 0 0 40 0 40 -105 0 -105 0 0 65 0 65 125 0 125 0 0 40 0 40 -175 0
-175 0 0 -265z"/>
<path d="M3692 725 c-92 -29 -136 -110 -98 -183 23 -45 59 -71 146 -107 95
-39 120 -59 120 -92 0 -85 -163 -84 -184 2 -6 23 -11 25 -57 25 l-52 0 6 -37
c9 -50 59 -100 121 -118 158 -47 303 38 272 160 -11 43 -63 91 -124 115 -140
54 -152 62 -152 109 0 58 99 83 145 36 14 -13 25 -31 25 -40 0 -12 12 -15 55
-15 59 0 62 3 41 53 -36 88 -151 128 -264 92z"/>
<path d="M4020 700 l0 -40 75 0 75 0 0 -225 0 -225 55 0 55 0 0 225 0 225 80
0 80 0 0 40 0 40 -210 0 -210 0 0 -40z"/>
</g>
</svg>
